<svg width="32" height="32" viewBox="0 0 32 32" fill="none" xmlns="http://www.w3.org/2000/svg">
  <!-- Background with gradient -->
  <defs>
    <linearGradient id="bgGradient" x1="0%" y1="0%" x2="100%" y2="100%">
      <stop offset="0%" style="stop-color:#8b5cf6;stop-opacity:1" />
      <stop offset="100%" style="stop-color:#0f0f23;stop-opacity:1" />
    </linearGradient>
    <linearGradient id="calculatorGradient" x1="0%" y1="0%" x2="100%" y2="100%">
      <stop offset="0%" style="stop-color:#ffffff;stop-opacity:1" />
      <stop offset="100%" style="stop-color:#e2e8f0;stop-opacity:1" />
    </linearGradient>
  </defs>
  
  <!-- Background circle -->
  <circle cx="16" cy="16" r="15" fill="url(#bgGradient)" stroke="#8b5cf6" stroke-width="0.5"/>
  
  <!-- Calculator body -->
  <rect x="7.5" y="9" width="17" height="14" rx="2" fill="url(#calculatorGradient)" stroke="#8b5cf6" stroke-width="0.5"/>
  
  <!-- Calculator screen -->
  <rect x="8.5" y="10" width="15" height="3.5" rx="1" fill="#0f0f23" stroke="#8b5cf6" stroke-width="0.25"/>
  
  <!-- Screen display -->
  <rect x="9" y="10.5" width="14" height="2.5" rx="0.5" fill="#1a1a2e"/>
  <text x="22" y="12" font-family="Arial, sans-serif" font-size="1.5" font-weight="bold" text-anchor="end" fill="#8b5cf6">£123</text>
  
  <!-- Calculator buttons (simplified) -->
  <!-- Row 1 -->
  <rect x="8.5" y="14" width="3" height="2.5" rx="0.5" fill="#8b5cf6" stroke="#6d28d9" stroke-width="0.25"/>
  <text x="10" y="15.5" font-family="Arial, sans-serif" font-size="1" font-weight="bold" text-anchor="middle" fill="white">7</text>
  
  <rect x="12" y="14" width="3" height="2.5" rx="0.5" fill="#8b5cf6" stroke="#6d28d9" stroke-width="0.25"/>
  <text x="13.5" y="15.5" font-family="Arial, sans-serif" font-size="1" font-weight="bold" text-anchor="middle" fill="white">8</text>
  
  <rect x="15.5" y="14" width="3" height="2.5" rx="0.5" fill="#8b5cf6" stroke="#6d28d9" stroke-width="0.25"/>
  <text x="17" y="15.5" font-family="Arial, sans-serif" font-size="1" font-weight="bold" text-anchor="middle" fill="white">9</text>
  
  <rect x="19" y="14" width="3" height="2.5" rx="0.5" fill="#ef4444" stroke="#dc2626" stroke-width="0.25"/>
  <text x="20.5" y="15.5" font-family="Arial, sans-serif" font-size="1" font-weight="bold" text-anchor="middle" fill="white">÷</text>
  
  <!-- Row 2 -->
  <rect x="8.5" y="17" width="3" height="2.5" rx="0.5" fill="#8b5cf6" stroke="#6d28d9" stroke-width="0.25"/>
  <text x="10" y="18.5" font-family="Arial, sans-serif" font-size="1" font-weight="bold" text-anchor="middle" fill="white">4</text>
  
  <rect x="12" y="17" width="3" height="2.5" rx="0.5" fill="#8b5cf6" stroke="#6d28d9" stroke-width="0.25"/>
  <text x="13.5" y="18.5" font-family="Arial, sans-serif" font-size="1" font-weight="bold" text-anchor="middle" fill="white">5</text>
  
  <rect x="15.5" y="17" width="3" height="2.5" rx="0.5" fill="#8b5cf6" stroke="#6d28d9" stroke-width="0.25"/>
  <text x="17" y="18.5" font-family="Arial, sans-serif" font-size="1" font-weight="bold" text-anchor="middle" fill="white">6</text>
  
  <rect x="19" y="17" width="3" height="2.5" rx="0.5" fill="#f59e0b" stroke="#d97706" stroke-width="0.25"/>
  <text x="20.5" y="18.5" font-family="Arial, sans-serif" font-size="1" font-weight="bold" text-anchor="middle" fill="white">×</text>
  
  <!-- Crown icon in top right -->
  <g transform="translate(24, 6)">
    <path d="M0 2.5 L1.25 0 L2.5 2.5 L3.75 0 L5 2.5 L4.375 3.125 L3.75 2.5 L2.5 3.75 L1.25 2.5 L0.625 3.125 Z" fill="#fbbf24" stroke="#f59e0b" stroke-width="0.125"/>
    <circle cx="2.5" cy="1.875" r="0.375" fill="#fbbf24"/>
    <circle cx="1.25" cy="1.25" r="0.25" fill="#fbbf24"/>
    <circle cx="3.75" cy="1.25" r="0.25" fill="#fbbf24"/>
  </g>
</svg>
